<svg width="190" height="50" viewBox="0 0 190 50" fill="none" xmlns="http://www.w3.org/2000/svg">
<path d="M23.2433 15.932V24.716H35.8793V27.812H23.2433V38H19.6433V12.8H37.4273V15.932H23.2433ZM53.5896 38.288C51.0456 38.288 48.7536 37.736 46.7136 36.632C44.6736 35.504 43.0656 33.956 41.8896 31.988C40.7376 30.02 40.1616 27.824 40.1616 25.4C40.1616 22.976 40.7376 20.78 41.8896 18.812C43.0656 16.844 44.6736 15.308 46.7136 14.204C48.7536 13.076 51.0456 12.512 53.5896 12.512C56.1096 12.512 58.3896 13.076 60.4296 14.204C62.4696 15.308 64.0656 16.844 65.2176 18.812C66.3696 20.756 66.9456 22.952 66.9456 25.4C66.9456 27.848 66.3696 30.056 65.2176 32.024C64.0656 33.968 62.4696 35.504 60.4296 36.632C58.3896 37.736 56.1096 38.288 53.5896 38.288ZM53.5896 35.084C55.4376 35.084 57.0936 34.664 58.5576 33.824C60.0456 32.984 61.2096 31.832 62.0496 30.368C62.9136 28.88 63.3456 27.224 63.3456 25.4C63.3456 23.576 62.9136 21.932 62.0496 20.468C61.2096 18.98 60.0456 17.816 58.5576 16.976C57.0936 16.136 55.4376 15.716 53.5896 15.716C51.7416 15.716 50.0616 16.136 48.5496 16.976C47.0616 17.816 45.8856 18.98 45.0216 20.468C44.1816 21.932 43.7616 23.576 43.7616 25.4C43.7616 27.224 44.1816 28.88 45.0216 30.368C45.8856 31.832 47.0616 32.984 48.5496 33.824C50.0616 34.664 51.7416 35.084 53.5896 35.084ZM89.296 38L83.86 30.26C83.188 30.308 82.66 30.332 82.276 30.332H76.048V38H72.448V12.8H82.276C85.54 12.8 88.108 13.58 89.98 15.14C91.852 16.7 92.788 18.848 92.788 21.584C92.788 23.528 92.308 25.184 91.348 26.552C90.388 27.92 89.02 28.916 87.244 29.54L93.22 38H89.296ZM82.168 27.272C84.448 27.272 86.188 26.78 87.388 25.796C88.588 24.812 89.188 23.408 89.188 21.584C89.188 19.76 88.588 18.368 87.388 17.408C86.188 16.424 84.448 15.932 82.168 15.932H76.048V27.272H82.168ZM106.812 26.804L102.204 31.484V38H98.6042V12.8H102.204V26.876L115.884 12.8H119.988L109.224 24.14L120.672 38H116.46L106.812 26.804ZM132.405 29.288V38H128.841V29.216L118.833 12.8H122.685L130.749 26.084L138.849 12.8H142.413L132.405 29.288ZM147.41 11.072C148.082 11.072 148.634 11.312 149.066 11.792C149.522 12.248 149.75 12.824 149.75 13.52C149.75 13.88 149.714 14.24 149.642 14.6C149.57 14.936 149.414 15.428 149.174 16.076L147.446 21.116H145.178L146.51 15.752C146.054 15.584 145.682 15.308 145.394 14.924C145.13 14.516 144.998 14.048 144.998 13.52C144.998 12.8 145.226 12.212 145.682 11.756C146.138 11.3 146.714 11.072 147.41 11.072ZM162.901 38.288C161.005 38.288 159.169 38 157.393 37.424C155.641 36.824 154.261 36.056 153.253 35.12L154.585 32.312C155.545 33.176 156.769 33.884 158.257 34.436C159.769 34.964 161.317 35.228 162.901 35.228C164.989 35.228 166.549 34.88 167.581 34.184C168.613 33.464 169.129 32.516 169.129 31.34C169.129 30.476 168.841 29.78 168.265 29.252C167.713 28.7 167.017 28.28 166.177 27.992C165.361 27.704 164.197 27.38 162.685 27.02C160.789 26.564 159.253 26.108 158.077 25.652C156.925 25.196 155.929 24.5 155.089 23.564C154.273 22.604 153.865 21.32 153.865 19.712C153.865 18.368 154.213 17.156 154.909 16.076C155.629 14.996 156.709 14.132 158.149 13.484C159.589 12.836 161.377 12.512 163.513 12.512C165.001 12.512 166.465 12.704 167.905 13.088C169.345 13.472 170.581 14.024 171.613 14.744L170.425 17.624C169.369 16.952 168.241 16.448 167.041 16.112C165.841 15.752 164.665 15.572 163.513 15.572C161.473 15.572 159.937 15.944 158.905 16.688C157.897 17.432 157.393 18.392 157.393 19.568C157.393 20.432 157.681 21.14 158.257 21.692C158.833 22.22 159.541 22.64 160.381 22.952C161.245 23.24 162.409 23.552 163.873 23.888C165.769 24.344 167.293 24.8 168.445 25.256C169.597 25.712 170.581 26.408 171.397 27.344C172.237 28.28 172.657 29.54 172.657 31.124C172.657 32.444 172.297 33.656 171.577 34.76C170.857 35.84 169.765 36.704 168.301 37.352C166.837 37.976 165.037 38.288 162.901 38.288Z" fill="black"/>
<rect x="1.5" y="1.5" width="187" height="47" stroke="black" stroke-width="3"/>
</svg>
